<?xml version="1.0" encoding="UTF-8" standalone="no"?>
<!DOCTYPE svg PUBLIC "-//W3C//DTD SVG 1.1//EN" "http://www.w3.org/Graphics/SVG/1.1/DTD/svg11.dtd">
<svg width="100%" height="100%" viewBox="0 0 341 341" version="1.1" xmlns="http://www.w3.org/2000/svg" xmlns:xlink="http://www.w3.org/1999/xlink" xml:space="preserve" xmlns:serif="http://www.serif.com/" style="fill-rule:evenodd;clip-rule:evenodd;stroke-linejoin:round;stroke-miterlimit:2;">
    <g transform="matrix(1,0,0,1,-782.582907,-406.833769)">
        <g id="Bird-Dog-Pose" serif:id="Bird Dog Pose" transform="matrix(1,0,0,1,-867.849939,577.135667)">
            <rect x="1650.433" y="-170.302" width="340.604" height="340.604" style="fill:none;"/>
            <g transform="matrix(1.149472,0,0,1.149472,1590.939216,-271.580204)">
                <path d="M106.481,200.939C113.205,201.348 114.186,203.537 118.563,198.558C122.953,193.562 130.782,195.776 137.499,194.49C138.798,194.241 141.5,195.002 142.375,195.69C147.95,200.073 147.599,202.445 154.557,200.745C162.198,198.878 172.318,205.41 173.654,206.273C173.776,206.352 187.083,212.537 190.578,210.631C213.2,198.292 214.602,205.634 230.544,207.121C255.503,209.449 263.6,207.644 266.4,207.019C293.977,200.868 299.223,211.603 307.731,205.837C313.301,202.061 313.431,207.123 322.537,208.101C323.268,208.18 337.258,209.683 330.554,212.583C317.205,218.359 310.59,214.42 292.524,215.736C263.96,217.818 264.231,219.379 261.527,220.559C258.888,221.711 223.034,227.095 222.624,227.581C221,229.509 223.753,230.298 216.347,258.464C214.308,266.216 219.526,262.931 227.486,262.278C238.866,261.345 243.279,266.778 254.334,261.187C259.532,258.558 262.486,257.175 264.173,265.574C265.952,274.429 281.11,272.758 277.488,276.487C272.925,281.185 262.816,268.953 243.563,271.971C223.404,275.132 202.725,282.199 201.916,268.463C200.881,250.908 200.546,251.026 200.84,233.437C200.875,231.333 197.413,232.872 190.556,231.264C183.678,229.651 183.105,233.805 171.504,229.49C170.549,229.135 162.312,229.583 161.514,229.626C161.016,229.653 161.147,229.958 157.331,245.466C156.968,246.944 158.106,246.943 156.147,264.451C155.102,273.792 158.618,277.953 150.503,278.005C144.995,278.04 118.635,278.842 139.528,274.653C147.333,273.089 150.938,272.55 151.092,269.448C151.938,252.391 147.991,252.448 150.31,235.473C152.595,218.743 149.225,214.705 143.508,213.761C141.496,213.43 143.353,218.936 139.491,219.343C134.411,219.879 133.719,222.623 130.088,218.965C129.149,218.019 120.455,220.346 116.865,213.342C115.175,210.045 114.364,210.911 99.424,207.845C84.575,204.797 84.397,206.73 79.57,206.074C78.586,205.94 61.585,203.63 69.603,198.684C71.766,197.35 72.289,198.848 75.576,196.593C76.554,195.922 83.581,196.426 85.374,197.685C90.269,201.122 90.773,199.787 106.481,200.939Z" style="fill:white;"/>
            </g>
        </g>
    </g>
</svg>
