<?xml version="1.0" encoding="UTF-8" standalone="no"?><!DOCTYPE svg PUBLIC "-//W3C//DTD SVG 1.1//EN" "http://www.w3.org/Graphics/SVG/1.1/DTD/svg11.dtd"><svg width="100%" height="100%" viewBox="0 0 256 256" version="1.1" xmlns="http://www.w3.org/2000/svg" xmlns:xlink="http://www.w3.org/1999/xlink" xml:space="preserve" xmlns:serif="http://www.serif.com/" style="fill-rule:evenodd;clip-rule:evenodd;stroke-linejoin:round;stroke-miterlimit:2;"><rect id="Bridge-Pose" serif:id="Bridge Pose" x="0" y="-0" width="255.453" height="255.453" style="fill:none;"/><path d="M91.155,163.474c-2.834,-4.086 -3.857,-2.044 -9.487,-2.028c-2.989,0.009 -3.854,-2.91 0.049,-3.487c29.63,-4.38 26.431,-12.025 24.724,-13.496c-0.801,-0.69 -11.27,-2.322 -17.201,-10.345c-1.208,-1.635 -7.295,-9.869 -20.155,-15.479c-3.955,-1.725 -3.689,16.338 -6.354,27.08c-1.216,4.903 4.665,16.857 -1.773,17.412c-3.023,0.26 -4.621,-1.867 -6.482,3.365c-1.303,3.664 -39.755,4.638 -40.769,1.414c-2.617,-8.318 25.918,-0.905 26.099,-22.289c0.347,-41.154 -14.014,-62.573 8.801,-64.775c1.104,-0.107 1.01,0.734 13.77,1.615c1.774,0.122 1.448,0.691 20.639,8.26c9.228,3.64 11.248,5.312 13.759,6.84l2.563,1.637c0.418,0.301 13.031,12.398 23.717,10.026c5.879,-1.305 5.117,3.13 20.888,5.735c6.03,0.996 18.757,9.507 20.276,10.523c10.53,7.042 12.099,4.474 21.134,13.209c17.375,16.799 17.557,1.088 19.607,-1.069c2.813,-2.96 6.125,1.711 11.331,-3.844c2.644,-2.822 5.201,1.789 7.679,2.21c2.453,0.417 17,-0.848 17.901,16.563c1.467,28.353 -33.906,12.541 -38.611,13.806c-0.3,0.081 -0.222,0.182 -2.999,2.462c-18.275,9.23 -28.988,4.518 -52.235,5.114c-21.375,0.548 -25.775,0.556 -48.261,-3.929c-1.745,-0.348 -14.556,6.292 -31.871,3.459c-14.985,-2.452 11.006,-6.283 21.966,-8.898l1.295,-1.09Zm10.421,-3.565c-0.063,2.682 1.407,1.484 7.784,1.674c0.324,0.01 3.927,0.117 7.726,0.105c7.031,-0.022 14.73,-0.451 3.534,-2.659c-5.239,-1.033 -7.843,-2.116 -10.431,-2.162c-2.283,-0.041 -4.555,0.725 -8.613,3.042Zm-49.765,-20.133c4.917,0.035 3.273,-17.371 0.301,-9.733c-1.503,3.862 -0.458,8.97 -0.301,9.733Z" style="fill:#fff;"/></svg>