<?xml version="1.0" encoding="UTF-8" standalone="no"?>
<!DOCTYPE svg PUBLIC "-//W3C//DTD SVG 1.1//EN" "http://www.w3.org/Graphics/SVG/1.1/DTD/svg11.dtd">
<svg width="100%" height="100%" viewBox="0 0 341 341" version="1.1" xmlns="http://www.w3.org/2000/svg" xmlns:xlink="http://www.w3.org/1999/xlink" xml:space="preserve" xmlns:serif="http://www.serif.com/" style="fill-rule:evenodd;clip-rule:evenodd;stroke-linejoin:round;stroke-miterlimit:2;">
    <g transform="matrix(1,0,0,1,-782.582907,-4.57296)">
        <g id="Child-s-Pose" serif:id="Child’s Pose" transform="matrix(1,0,0,1,-867.849939,174.874858)">
            <rect x="1650.433" y="-170.302" width="340.604" height="340.604" style="fill:none;"/>
            <g transform="matrix(1.842617,0,0,1.842617,1221.783573,-1396.748688)">
                <path d="M325.749,739.975C345.048,731.806 345.644,734.326 366.469,731.3C397.445,726.798 402.403,751.233 390.132,761.082C389.063,761.94 383.57,763.34 388.984,768.018C400.964,778.366 412.814,778.639 405.361,782.189C403.186,783.226 386.506,779.54 372.581,781.981C362.678,783.716 334.413,789.448 332.304,775.535C331.548,770.549 340.076,765.896 333.495,767.379C332.189,767.673 331.87,767.063 331.667,767.024C331.453,766.715 328.548,762.525 327.687,764.531C327.528,764.903 329.253,767.295 329.415,767.519C330.446,772.435 323.761,777.075 320.475,776.843C318.015,776.67 315.469,780.891 311.476,781.156C309.818,781.267 308.152,781.125 306.49,781.152C303.991,781.194 300.943,784.115 296.491,784.134C273.462,784.234 273.516,783.588 250.494,785.289C248.59,785.43 239.49,783.624 243.387,782.367C244.707,781.942 244.677,782.004 254.603,779.789C255.271,779.683 285.255,774.924 262.465,776.674C261.83,776.723 261.877,776.725 254.53,777.355C254.151,777.333 233.635,776.184 250.505,774.844C253.999,774.567 262.831,771.604 276.488,770.317C290.151,769.03 292.124,768.015 293.301,764.43C294.865,759.669 294.884,759.436 299.34,757.16C301.662,755.974 306.662,759.548 310.97,753.815C313.434,750.535 316.16,749.428 317.179,748.217C321.078,743.58 320.825,743.394 325.749,739.975Z" style="fill:white;"/>
            </g>
        </g>
    </g>
</svg>
