<?xml version="1.0" encoding="UTF-8" standalone="no"?>
<!DOCTYPE svg PUBLIC "-//W3C//DTD SVG 1.1//EN" "http://www.w3.org/Graphics/SVG/1.1/DTD/svg11.dtd">
<svg width="100%" height="100%" viewBox="0 0 341 341" version="1.1" xmlns="http://www.w3.org/2000/svg" xmlns:xlink="http://www.w3.org/1999/xlink" xml:space="preserve" xmlns:serif="http://www.serif.com/" style="fill-rule:evenodd;clip-rule:evenodd;stroke-linejoin:round;stroke-miterlimit:2;">
    <g transform="matrix(1,0,0,1,-394.861609,-0.280853)">
        <g id="Cobra-Pose" serif:id="Cobra Pose" transform="matrix(1,0,0,1,-1255.571236,170.58275)">
            <rect x="1650.433" y="-170.302" width="340.604" height="340.604" style="fill:none;"/>
            <g transform="matrix(1.576762,0,0,1.576762,788.034178,-350.889598)">
                <path d="M615.362,187.279C611.963,187.962 610.095,185.093 609.736,188.551C609.139,194.317 607.21,193.168 601.528,193.85C597.8,194.297 601.762,200.317 602.068,200.782C610.978,214.317 602.997,243.574 615.578,240.86C629.695,237.816 630.331,243.023 637.6,248.357C640.48,250.471 668.754,255.754 671.494,255.425C687.924,253.452 687.548,256.866 703.605,262.174C716.979,266.595 719.125,259.143 725.023,265C729.373,269.319 728.956,270.773 738.5,271.495C742.664,271.81 743.141,276.092 738.51,276.583C722.138,278.322 721.799,278.204 720.429,277.729C702.012,271.34 701.673,273.304 682.423,269.894C674.383,268.47 673.504,270.623 658.467,272.02C629.313,274.728 629.149,270.244 609.457,265.692C599.112,263.301 594.537,255.507 594.726,259.527C594.799,261.091 595.593,278.028 587.502,277.71C570.016,277.022 569.959,277.947 568.516,277.471C567.53,277.145 567.175,274.154 580.492,272.449C585.454,271.814 589.678,271.341 585.748,258.423C580.679,241.759 585.921,236.11 581.251,230.726C576.114,224.803 576.844,222.975 585.431,204.467C586.004,203.23 590.661,193.192 583.468,187.54C578.165,183.373 581.368,182.164 582.845,175.557C583.277,173.626 586.771,173.584 588.294,172.283C589.436,171.307 600.42,161.924 607.018,170.889C614.697,181.325 617.415,177.006 618.02,177.854C620.319,181.069 615.516,186.99 615.362,187.279Z" style="fill:white;"/>
            </g>
        </g>
    </g>
</svg>
