<?xml version="1.0" encoding="UTF-8" standalone="no"?>
<!DOCTYPE svg PUBLIC "-//W3C//DTD SVG 1.1//EN" "http://www.w3.org/Graphics/SVG/1.1/DTD/svg11.dtd">
<svg width="100%" height="100%" viewBox="0 0 341 341" version="1.1" xmlns="http://www.w3.org/2000/svg" xmlns:xlink="http://www.w3.org/1999/xlink" xml:space="preserve" xmlns:serif="http://www.serif.com/" style="fill-rule:evenodd;clip-rule:evenodd;stroke-linejoin:round;stroke-miterlimit:2;">
    <g id="Warrior-III" serif:id="Warrior III" transform="matrix(1,0,0,1,-1650.432846,170.301898)">
        <rect x="1650.433" y="-170.302" width="340.604" height="340.604" style="fill:none;"/>
        <g transform="matrix(1.313423,0,0,1.313423,734.054037,-289.331653)">
            <path d="M844.474,201.067C824.235,200.951 822.279,196.679 821.998,199.63C821.567,204.153 822.552,204.114 821.895,208.552C821.664,210.114 819.438,215.953 819.374,220.499C818.998,247.16 819.635,264.489 825.683,269.242C831.285,273.643 836.504,274.184 837.528,274.29C839.555,274.5 841.297,277.279 836.541,277.835C828.02,278.831 828.015,275.789 819.521,277.652C811.071,279.506 816.261,273.034 811.067,253.613C808.017,242.209 806.515,242.328 807.812,230.536C808.089,228.018 808.448,224.758 801.492,199.502C799.601,192.636 769.13,193.25 758.526,188.453C757.603,188.035 732.812,180.891 722.816,187.949C712.677,195.109 717.305,204.025 713.612,200.37C713.093,199.857 713.355,199.759 711.452,191.508C711.241,190.594 716.737,177.809 717.476,177.458C721.281,175.653 722.024,180.687 735.382,177.081C747.881,173.708 749.918,172.963 760.592,177.274C762.787,178.161 792.123,176.472 798.624,172.699C811.235,165.38 812.041,172.496 826.537,173.108C849.036,174.06 858.107,171.047 862.672,173.123C870.002,176.456 866.593,159.748 880.411,162.945C887.328,164.545 889.938,171.536 888.856,175.596C886.74,183.541 895.393,176.754 904.432,177.989C909.887,178.734 911.354,180.533 923.449,179.055C925.812,178.766 928.781,173.193 932.36,174.902C937.938,177.565 948.539,176.561 940.199,183.113C939.553,183.621 938.773,182.17 931.179,188.023C925.714,192.235 917.638,187.928 893.428,192.091C877.013,194.913 867.756,190.668 862.12,195.006C854.601,200.794 844.547,201.055 844.474,201.067Z" style="fill:white;"/>
        </g>
    </g>
</svg>
